{"title":"Dreamworks Dragons S03E02 WEBRiP x264-QCF","uid":12065353,"size":224327750,"categoryP":"video","categoryS":"tv_shows","magnet":"?xt=urn:btih:d2e62111646a47cd25526f2e1edb4051ad83d6bd&amp;dn=Dreamworks+Dragons+S03E02+WEBRiP+x264-QCF&amp;tr=udp%3A%2F%2Ftracker.openbittorrent.com%3A80&amp;tr=udp%3A%2F%2Fopen.demonii.com%3A1337&amp;tr=udp%3A%2F%2Ftracker.coppersurfer.tk%3A6969&amp;tr=udp%3A%2F%2Fexodus.desync.com%3A6969","seeders":1,"leechers":0,"uploader":"Mulva1989","files":2,"time":1435374696,"description":"Dreamworks Dragons S03E02 WEBRiP x264-QCF\n\nHiccup and the Dragon Riders journey to Glacier Island to find the Snow Wraith, a fearsome dragon that holds the key to the Dragon Eye's mysteries.\n\nScreens @ &lt;a href=&quot;\nhttps://yuq.me/users/50/321/wXhJK2nRNF.jpg&quot; rel=&quot;nofollow&quot; target=&quot;_NEW&quot;&gt;\nhttps://yuq.me/users/50/321/wXhJK2nRNF.jpg&lt;/a&gt; &lt;a href=&quot;\nhttps://yuq.me/users/50/321/Qc6m0lupHs.jpg&quot; rel=&quot;nofollow&quot; target=&quot;_NEW&quot;&gt;\nhttps://yuq.me/users/50/321/Qc6m0lupHs.jpg&lt;/a&gt;\n\nFormat : MPEG-4\nFormat profile : Base Media\nCodec ID : isom\nFile size : 214 MiB\nDuration : 22mn 54s\nOverall bit rate mode : Variable\nOverall bit rate : 1 306 Kbps\nEncoded date : UTC 2015-06-27 00:07:44\nTagged date : UTC 2015-06-27 00:07:44\n\nVideo\nID : 1\nFormat : AVC\nFormat/Info : Advanced Video Codec\nFormat profile : &lt;a class=&quot;__cf_email__&quot; href=&quot;/cdn-cgi/l/email-protection&quot; data-cfemail=&quot;2860414f4068641b0619&quot;&gt;[email&amp;#160;protected]&lt;/a&gt;&lt;script data-cfhash='f9e31' type=&quot;text/javascript&quot;&gt;\n/* &lt;![CDATA[ */!function(){try{var t=&quot;currentScript&quot;in document?document.currentScript:function(){for(var t=document.getElementsByTagName(&quot;script&quot;),e=t.length;e--;)if(t[e].getAttribute(&quot;data-cfhash&quot;))return t[e]}();if(t&amp;&amp;t.previousSibling){var e,r,n,i,c=t.previousSibling,a=c.getAttribute(&quot;data-cfemail&quot;);if(a){for(e=&quot;&quot;,r=parseInt(a.substr(0,2),16),n=2;a.length-n;n+=2)i=parseInt(a.substr(n,2),16)^r,e+=String.fromCharCode(i);e=document.createTextNode(e),c.parentNode.replaceChild(e,c)}t.parentNode.removeChild(t);}}catch(u){}}()/* ]]&gt; */&lt;/script&gt;\nFormat settings, CABAC : Yes\nFormat settings, ReFrames : 5 frames\nCodec ID : avc1\nCodec ID/Info : Advanced Video Coding\nDuration : 22mn 42s\nBit rate : 1 193 Kbps\nMaximum bit rate : 3 821 Kbps\nWidth : 720 pixels\nHeight : 404 pixels\nDisplay aspect ratio : 16:9\nFrame rate mode : Constant\nFrame rate : 23.976 fps\nColor space : YUV\nChroma subsampling : 4:2:0\nBit depth : 8 bits\nScan type : Progressive\nBits/(Pixel*Frame) : 0.171\nStream size : 194 MiB (91%)\nWriting library : x264 core 146 r2538 121396c\nEncoding settings : cabac=1 / ref=5 / deblock=1:0:0 / analyse=0x3:0x113 / me=umh / subme=8 / psy=1 / psy_rd=1.00:0.00 / mixed_ref=1 / me_range=16 / chroma_me=1 / trellis=1 / 8x8dct=1 / cqm=0 / deadzone=21,11 / fast_pskip=1 / chroma_qp_offset=-2 / threads=6 / lookahead_threads=1 / sliced_threads=0 / nr=0 / decimate=1 / interlaced=0 / bluray_compat=0 / constrained_intra=0 / bframes=3 / b_pyramid=2 / b_adapt=2 / b_bias=0 / direct=3 / weightb=1 / open_gop=0 / weightp=2 / keyint=250 / keyint_min=25 / scenecut=40 / intra_refresh=0 / rc_lookahead=50 / rc=crf / mbtree=1 / crf=20.0 / qcomp=0.60 / qpmin=0 / qpmax=69 / qpstep=4 / ip_ratio=1.40 / aq=1:1.00\nEncoded date : UTC 2015-06-27 00:07:44\nTagged date : UTC 2015-06-27 00:07:46\nMatrix coefficients : BT.709\nColor range : Limited\n\nAudio\nID : 2\nFormat : AAC\nFormat/Info : Advanced Audio Codec\nFormat profile : LC\nCodec ID : 40\nDuration : 22mn 54s\nBit rate mode : Variable\nBit rate : 119 Kbps\nMaximum bit rate : 144 Kbps\nChannel(s) : 2 channels\nChannel positions : Front: L R\nSampling rate : 48.0 KHz\nCompression mode : Lossy\nStream size : 19.5 MiB (9%)\nLanguage : English\nEncoded date : UTC 2015-06-26 23:55:09\nTagged date : UTC 2015-06-27 00:07:46","torrent":{"xt":"urn:btih:d2e62111646a47cd25526f2e1edb4051ad83d6bd","amp;dn":"Dreamworks+Dragons+S03E02+WEBRiP+x264-QCF","amp;tr":["udp%3A%2F%2Ftracker.openbittorrent.com%3A80","udp%3A%2F%2Fopen.demonii.com%3A1337","udp%3A%2F%2Ftracker.coppersurfer.tk%3A6969","udp%3A%2F%2Fexodus.desync.com%3A6969"],"infoHash":"d2e62111646a47cd25526f2e1edb4051ad83d6bd","infoHashBuffer":{"type":"Buffer","data":[210,230,33,17,100,106,71,205,37,82,111,46,30,219,64,81,173,131,214,189]},"announce":[],"urlList":[]}}